<mxfile host="65bd71144e">
    <diagram id="beykjhZsGjQN1WgWd7xw" name="Page-1">
        <mxGraphModel dx="2391" dy="849" grid="1" gridSize="10" guides="1" tooltips="1" connect="1" arrows="1" fold="1" page="0" pageScale="1" pageWidth="1100" pageHeight="850" math="0" shadow="0">
            <root>
                <mxCell id="0"/>
                <mxCell id="1" parent="0"/>
                <mxCell id="7" value="" style="shape=stencil(lVfbbtswDP0avxKiqOtz1/1HgaZLsCwp0nSXvx89Q45FeyfIm6PwiNdDUoM8fexf3neDdx/Xy/n77tfh9bof5Mvg/eG0310OV/0a5HmQp7fzZfftcv48vU6/319GyfHrx/nneMPvCSeJvBtR3v2ZTphS+HfwdZI/Hk4L+ego5E4+UXFAvlIO/f1MUv8PSJlS7AGJArAoBwq1A6gLFQCKI+lN8rkZuQ2IVoMIRQ8AlWrpAZU80FCFUp+FECgmAEiUepNCaTq3AZVc6gDRUwIa2DlyvU2aS49UJOLe6xSpAhWlUOkB2ZOPMHPZ94BCDgCyEPeAIpQFVp/0cVUjIWCuhAaonioiRIvhLK+pzEBBc3CWjxQZZKH9O8sHSB+OJMYBdQmk2XsqyQIcsEjY8k1DhHqGkqXkVUxBjEJuZFn6gJKgfFtFSUCao9ZFsWkQEKVYKKzyHJGGRLmvvKqdEGnwtivV0prCdpS0lKQHVAqAn6LkKhZQQaa1+IzTiy6yjWDilU0ZqGBp7FoAHKiNsiqNQgycjnb8aBoclLd5jlRAFtYxDZRBmtVhXtV2AYT2zk50BTCIkJoUjAblJyhVySsffGPsduVF4mhNQqMkMhVvo+TAxFX2BLZpQE1p5KfRoOMLLT6PAnTPsZ1b9xLgg+45Zgko2tdAKfnQXJwBHvZ6XVucmZ/adcD8DL6V2gxgHFbdHns+6w7AKNPqYh+lWDHfqm0A2ggr8EEBZsAFPUGA3DbgxTKGdquoE7b3QSdYRnyoNtMSGkO2AUr5PtMjaYEGpSj3I3Qc26D4xNnS4Az3DL3PZJrvLJTRLm8F7hlaaGbphrW92lbVXxDRDXG0oLPtePiVJHYT1jEHpuBqcXbw9nkI38Q9aBMcWp+6yaOJycXW/50ZLnaG4/v1tSX5AftlVQk4PCOX7JMWRf/RJ/B9ef24vbffDsfj9Fxf/m/f53o0ve3l+S8=);lineShape=1;" parent="1" vertex="1">
                    <mxGeometry x="426.9671574597878" y="636.8311523460377" width="8.175743026049721" height="60.4144753757898" as="geometry"/>
                </mxCell>
                <mxCell id="8" value="" style="shape=stencil(lVnbUhsxDP2avGps+f5M6X8wQyiZUsIEevv7yk2drqXsWXgLy5FX1vVIuws3r493L/sdu9e30/Hr/ufh/u1xFz7tmA/Pj/vT4U1+7cLtLtw8HE/7L6fj9+f7898vdx3Zf307/ugn/DrLOYrchdj9Hg+c+/vg8xn+dHhewDOFoOFxHe4rZYOv63iuVJzC+7aOj3JcU/h/Cl7FJ7b4CM7PkXxU+JzW8SVR1vpXcH5Nw9oD76E+zVOd3cXUgD4tky8TXhT0AF8p5lkfMRASaJT8LFCGCdYEap1vUMihKzRqs0AoVFHMOaeNGhuF8pFXZIfNagSKOAbEXReY4676kRmrAmkWaBSxQJkd0RJMTXG1uoM8SejShdKcCwtLX5dI5JVOomUGApItxegEwk/yR+WnRHwGri6FmhKIMDayCXDJwYJKhtMqieccqkmXDLsISJUFZpWiV9QbAmVeFwjeCHhYVjlSnDOoNGLwBqnzcX6DGBrFtw+jLl4EMiw0UoeSEkgUQbhW3alKpIIcTaVqPINYlUI6V8oSRo5f95o5P8CSEUZYLvDIokzeaXwA+jtd6QvDIHLEVeMDqC8mDXqJBPZxowss8AHq4+ZOWKQ14/OzxjtoHz/rI5UAtWaxT9N4fH6c/ZsrrCtu1LUlHsSDlNKs8RVQLz+K1EJ/Rgl5xT4F4tn4K2B80HjUk0Uf05ITsL/cV+XXhRuu2LN5jY+gnkiRZo1HnUnqm8XD+AnR6APs44x9eCM+nbUnzkfrL9DFLoPDAo/qrdNcQuIN25OjxnsQ/6YL93yB+iimv52PBl9B/H8Uz4MUL+5bgX1ksjH+SqCeR83bCx5tkuYcvZ6D87OuV71fwP6uKQrDficEwjZsxMuEoigKvtHhhQQlpVIiBinQaZZSKcMeIEROBUWpkFBHE0UbzC+ZtiTcErlB6C4b9po2CPUcSMKPUSOQK6pO36dg8AYZCpRK7RLsa2OHHgoSNVDr+mAzJ48MR6h5yL9Vte5PNgZxdekM26tMVmrolUsjP7RmHCd+AAWyC6iRdHOGZUsB0UhqBPLFM6sCcwLF7TvMbwgFe7ppGssFljFxXJ1Do5cF5AcT3p4H1V7b6TjFRMYkv7YzKnoHFNBOKupdRYBOsDsvGTxQxTA7tTBa+zt3dkwNNTazE2QYdXbnyLCR250mJnZmZcrjfWs8hDUcjlnBwOHprOEJkiId/aPrrnG6ouAeUlId+RuMy+xKEWG5AkfzjFHGwXHJXPWyn3ifId3G8MxaGY9nAQ1Hq78P7vw34fLj/+eFh8PT0/nrxPL/+nOEPDp/ygi3fwA=);lineShape=1;" parent="1" vertex="1">
                    <mxGeometry x="431.5876586520699" y="636.6457885919931" width="281.24519768748866" height="86.02331409426237" as="geometry"/>
                </mxCell>
                <mxCell id="9" value="" style="shape=stencil(lVfbctpADP0av2pWK+3tOU3/IzMhhSmFDCG9/H3lUlOvTA71mzF7rMuRjrSDPLxtn143Qwxv59Px6+bH7vm8HeTTEOPusN2cdmd7GuRxkIeX42nz5XR8Pzxffr8+jSfHp2/H7+MXfl5wHAKFMMJi+PX3FdX458XnC2C/O8wArVLO/flIJQCAUuMOEBNlBgCmkjqAKEXgUq2UagdQIc0AkEh7CylSagAQSVoHyDyl7SagLFzKlSKwUBJx6QBFqCUAUEoOUGAMZiH0QVeenPwIUHriLG+iAJCp9FmqjRRZqFOIE6DJlOjbgEaxD7oVnNbi02r1y6A0ChMnD2jyMSBf2+UKaJRAllIgrh7QQD9IIe0tzJr2JiJaywVvogITLFOMM4CA6rMOVp+lDJgOXgOMtwpoCBTd9zM1wLNQbv48AxJ46ZBpAsiQqSK7DClVELHIVJgzQAakqXnMawDJFCWvcckkSPMiaCCspgBZFmlFotQoON7KPZ0U8YBaAEAouRjqxP3toNOilKy0QeklvQFAzaPsdfJuf5qkZG+iAQCXRZpMZIAq1QUPWMWinw2jTAKiF0vDqMOw/9eeVyfbNhhAWcikVrPJI+D71gl9Pm20MRJIG54OwCRIL2QalbPxjDyKbfrebAGooCbk+vdsxWCkkZby3kIOsCikUemDHtckoBcaiftJNS5iSPN0qoLZqofGs4mk48FGUUIAk5OehzvrqllIa/ZhLT4Ehjxr8wJmJIDKTjZHxJ2/MxVcKwdYqFmoeH9QJ5TgGcBaZ0uh1hXnbdUuusIfW/51TbwmJG6FDPg2YouH9wfxZcIc3bYG62H1Bew/APbw7773stvvL9fF+f/+fmivLndLefwN);lineShape=1;" parent="1" vertex="1">
                    <mxGeometry x="475.13913756712714" y="637.1029687457266" width="4.758862729325605" height="69.36252356347856" as="geometry"/>
                </mxCell>
                <mxCell id="10" value="" style="shape=stencil(lVfZbhsxDPwavxKSqIN8TtP/CBCnNurageNef18uFrJXXHuKvPnQSOIMj9GGnz52L+/bTQofl/Pp+/b3/vWy2/CXTUr742573l/s04afN/z0djpvv51PP4+v8/f3l2nl9OnH6de0w58ZlyrVNKFS+Dv/EvsPX+f1h/1xsZ4jpTasFwoBrC+UZNyfidEBQhJHgFJujwGZKdQBYDExAjRKZQAwU4uPASVS5gGQjQUFgEI1jwCBrJZriB1QMok8BlSmMgZdAwVwQm2UR51rplAeA1ogHVmyLQoCVMo6AJpdEqSGRGphBJj2FQCqV1q4J8t9gHZdr4BGCq6k2dOqkQoSbqWDVhjDpOuYGlpIAK1FfPLZJRWcYKmhK0ACAFO6jSWq3C95HyB9vwWgAYAUKqsTFJSosa7iYyhAaWO9qacVlahq328hXAIxGMAL1yCt9ndzLAk+gSm7oJUCaAKWzLl4QEWAQOx6awiwfbdEEvwRCnitxRf1dCdUELqiyaJm3Fyj5zWCqK1G69hcJ+VA0Faj0fFa8Qmtk7jMPiB1tfweu7HlNxpy1bqAO4F7f74vnOlQPADWKFOKHoA6mYZV0JkYNdeyiqFQQEV9HQcLgALAIpsXyino359HlLBqHKlbovt2w7Jz1FqEGCiRq+/HkrtjuQ8wGt3k1e66HlmmOMbQcMfPq1FtZgCxlIPvZWY3kClj7amwMDQMtObq56I1hghY4kQ8smTKCLhSaiQOYGYAsJSuznZhLBXoEMW3ssmOgyuZd64rc9zACeod07QDcht+jFqqgu1XxZOgCQ29sd/eGgXu7iZuhAKnnmB9ufkaVJdU2C3PyPT49hjgDImhD4DbemS3TRc3y/FgjrXruFgPunW8TuHF/YFUE5vB04OKxeaX50fA/S3TxL0LKQJf8dl36v/X24fbo/htfzjMb+rl//4RbT/ND3B+/gc=);lineShape=1;" parent="1" vertex="1">
                    <mxGeometry x="514.7303413937759" y="640.3312783309466" width="9.224764614209562" height="68.00640917509782" as="geometry"/>
                </mxCell>
                <mxCell id="11" value="" style="shape=stencil(lVdJchsxDHyNrihwAZez4/zDVZYjVRTLJctZfh8wKiokRtOJbqMZtIilgQY34eF99/S23Xh+P5+OX7c/9s/n3SZ82ni/f91tT/uzPm3C4yY8vBxP2y+n48fr8+X321OzbE/fjt/bP/y84GqlVBrK86/LG0/Mf158vtgf9q+jfSCfJ/tE0a/bl0C1TvbOkwBAzsRpBmTKeR2QChU3RxApu3WAVMpzyMFTDgDAVOYYoiMHkhR99/gKqBRBDEEoyQSQTKECAJMLcxkixbIO8EJ1PiEzZVAHH8j5GSBUQAzeUTGASiVCgJ8rXTxVkFYFuLkOJcNKtxPmOlRHGaR1Ueha4AHce2WwZ5BUrdrMvKplBhG73ltX+0QJMDWQFGvPgBXauzMpqsB4a/862EsC/gfiYAEoAJds9yugAhK50mk/hBzBCa1mYmvAiNe8SGruA2T1hGhZEQHrWgyGprW392qWxAIS4F2rg7eACgBa6JnYjhnqwjXpwwGo+ZWpi5DRhNROcDanKIBlpxXyck8nZxLgP/dJNdAODjurCGqP/BGKhkPSZe62zlJiay+ApM71tvpfgJBb9D7yqMl2uidkV/toGHN6NwANi96GgxwIUtmuwYPeCNos7K6jgpZA02Rrr4opqO+5c3LQZEEZCv3zoPoBZSj3pWDYKxiNU90HZ5dEawB4pJtLmHkUtZNBUkOhYJYphuM0Zrsb6X6HVFC0bmYHjlDGW07MeEy9lLcLzZTmGLT/EghaiRDnE3QgAKEtidxcaNeFdM2+zA4xXIGV+GZccB9Qt+0r+WrsPVosdPNKxh75X70lNpanGu2uyZDWbbZZ/x2It+1x1p+A/r8s/UeToqmjN/aoaZq8z112XYVXJstCAJWgKOB7743/tNeHv5fUl/3hcLnjjt/tpVZfXS7E4fE3);lineShape=1;" parent="1" vertex="1">
                    <mxGeometry x="593.1613213727796" y="638.2425402067472" width="16.786516416901428" height="77.8557738843866" as="geometry"/>
                </mxCell>
                <mxCell id="12" value="" style="shape=stencil(lVfLctswDPwaXTEkwOc5Tf8jM3FqT10747ht8veFqqEjgvYmuckyVgAILBac5O5l+/C8mdi9nE/Hn5u/u8fzdpJvE/PusN2cdmd9muR+krun42nz43T8fXhcfj8/zJbz06/jn/kLrwsuOEpuRrF7W954ivX/i++L/X53WNszudLbC+UEAJFC7ADMVPk2IA4RCVMBHmKimDpAEGKQQ9Lv1Q4QhaoAQKXQh5QCJX8bkBO5HpCFJN8GFLaA4prP64BMOfSA2M7tKqDyAKjkQR1qIe5DqkIBJO2ds0nUTDVCFyn3gIKTCJT7ylVNApS6lNacK0ACIRVPzBaAeiNrN/ceVudwvZsCFbEuYINrrZ0FREQhJhkADpQuVGJvC4HaL+i59qyul4a8xWpzTArwwEOMjWEXgPIcVE5ZbSuXyANAdi2ACyDiUpfW/58ElDTUQUMCp6QkrTIkjQB5OKVMDhBibrVgARnkoACbdCFBHjRp0xq4+aq2RraACABFGl0+SaAc7ez7kKOZwhATKnXUv70FoEGjklMGD4woVwcGFShCoVghnccxkuovA+owmIQiIrWn3HNURUjQsXpyPSFU5goAhGTbtTgoKboAce9BpRrNGZEry0AGAE5to7qsG6EtUdeFtNr+1oUmgKR1BZM+B12ZKuBotimwkAOCwk3GV0tfAa03LAKeEojfNTV7N2cw9LhJfjN3VMBxBstMB+tbKIoxR8ukZ6vmDuqaz3ZbdXA6arZhsAff19oaGXRQEMTb7tR8AeclWk1zcBeR0hRvVS1QXNExZ2Y1HotfvcB8aK8P77elp91+v1y21v/b25W+Wm5mcv8P);lineShape=1;" parent="1" vertex="1">
                    <mxGeometry x="645.9591820724079" y="640.3742439030058" width="5.907224426892223" height="74.11917596728794" as="geometry"/>
                </mxCell>
                <mxCell id="13" value="" style="shape=stencil(lVfLctswDPwaXTEEwRfOafofmYlTe+rGGcd9/X2haqiasLXT3GSJa4DAYpec5OF9//S2m2J4v5xPX3c/D8+X/SSfphgPr/vd+XCxp0keJ3l4OZ13X86n76/Py++3p3nl/PTt9GP+h18LrjVinVEx/F7ecKMU/775vACOh9crQE3EPAIK1boNyIVi9ABO2wBRkuYBjbcBsVIrAyAGihkAEkUZABJIUEqFQhoBlRRsOhUqYQAkIQ6gSraHPACyUERltQTGlIpiAFMcU2qRQgFVUspjlbRRUQDIlMaUVKkBLkWmoB6goNNGBL1JSUGnWUhchEpBACD4PmgiAWW1ItVxPXdybawvY0LNGgm6wOwHtCVqDW5Zx3mzPgvoAlfKLkKgjMaHe1c7oCpVxCQb+OIjoC7YOHoAkyCAUHLkFspg05Ipj1xtBfbZJEBcStrrthWhOmZEakhkpH9eAfYXoNNWpTqmZNOARMb64ITS5i2jxkVfJQ7WORDC3CPehBBE10TJlalCP7GByMWXCfFbb8pq8wBERim5cdCu/luS4amUe53vA4wHLgI2B5O96ACMUzJA+wggrrp75SYJjQN31Vr9Somx1vONwSVAjObHJ5m9AAlYeblaNLY3oXBzLEECYDJZnaVDN7QTgrNPyxDs1ww9R78ekKJWim42Ow/v03pV0LVAxMjYhCq79QXkb1PonDP1M9D99ZWKIwT0tdnpR07Xfty4v167eK5z3w9AG2N8wyCTmgB80CIUR6F1sre2UEZOm/oVJEXVn9nmszMqqkmhA9SuHVtdDu6wjT1EA5XiAQlE+PAN4z8A9vDvQvNyOB6X+9D1d38BslfL5Uke/wA=);lineShape=1;" parent="1" vertex="1">
                    <mxGeometry x="449.62951776413615" y="650.7045566494795" width="18.042843381470185" height="23.956820318426065" as="geometry"/>
                </mxCell>
                <mxCell id="14" value="" style="shape=stencil(lVfbcttACP0avTK7LHt7TtP/yEyc2lPXzjju7e+Lqko1WDqZvMkyRwsHDrBDenjbP73uBg5v18v56+7n4fm6H9Kngflw2u8uh6s+DelxSA8v58vuy+X8/fQ8/X59Gi3Hp2/nH+MXfk24UqjFEcXh9/SmU5G/Lz5P9sfD6cY+M5Vu7JmJ0zZAhFgMIAUqYRuQMvVkAZ04bgO4UrcuSaPQASBQti5lZQHEEIXEklSEKnApBkrNAGqk2AAgUygWUEmAS5xI7AktUARBJ6HsAIkiyLQUqmwBGQadNU0OUKkBl5STVC2gUwYnNKZoS6Mr0QwAWszFAyIovq4uZQuQWSDrgEDNBt0TcYaA6lyKlAFLfamcmxgCioEp2Bhag5oePbYuaeL+8bYOEN8EFBBR0IU43AGAHro6ED2gAj30Ri34oCuKQUuDPa0ohhgW2m8y984RzdKkTAsoVwUk14yFOuK1zeW/ABamt3gNDqBvEK+ZcvaAhGsj3AEiAjDV4GNArU9ZL64LZOIKJdfF56EiyQXf+tRJWN/BjyB9gzrZWDmuV/Z5Amyx1GzQKoiORC0rkmN0QvZ5GDWKYljyegMQRGsjsXlQjSaUONVD9yzBxvRRwDhwrEs3Ml9HxDmxS6r1G+CIGvykVh5Qw8+6vTiAZg40S8m+f3c8qRP7qFUQDRSTbkziJBfnDWc9EZTvVgHkEd8VKx6Kd624JjhP2A/dogsXqDz11m2IjSKw1w2Rbc6ybiagjDhSs7uPRBJwglLaLUCziPScmh8m486INvXiXdKokHhK8GqLMOYSvb02SRByYS+1MO9/6/bJdzAsZV3iW/PfB0WnNdO9/wUUnd6tenH8CJgiZVlxloxh++Z1n+bJuGWf7fd1uwDryGhv+SzzXW7LPlp+KhyCGq9bwXRPRfXwwbvq+/b68P9i/HI4Hqd79e3//iKtr6ZLeHr8Aw==);lineShape=1;" parent="1" vertex="1">
                    <mxGeometry x="486.72829388913556" y="651.7221940459666" width="31.70383291635858" height="28.703911099959026" as="geometry"/>
                </mxCell>
                <mxCell id="15" value="" style="shape=stencil(lVZJcuMwDHyNriiC4AKeM8k/UhVnrBqPnXKc7fcDjYqJQdmQedOCJgmiu4GB7l63jy+bwbvX0/HwZ/MxPp22A/0avB/3281xPMnTQPcD3T0fjpvfx8Pb/ml+f3mcIqenv4f3aYXPGVcKxDihvPuavyTA8v/Dwxy/G/fn8QEiqnjvgZMBQCCnAMTggwEgSKwAIQOzAYgw/TsDRAaKBiBBaHJm4GwAZD1SgJzrIS8C0DlwOmtJK6OxRQbSWUta2V8HcAFudsgQDUBmcEkDGIoBSASUNaBANrKWOvmiAGf3cBFBCKG0W0SDTSj3Tm0S0bjXDNgknaBYGwDmtgzOoIZrU5Y6OzLuCJLmqujDWh+FNrrMUngyiiD6jfpEzICGGgJWFnwDhEhG0URd6HoAmSBQz5E4AWFP0lKkVj32tU5M1jus1E1oxg3xbGIUscXQwzz2QAt9WtQW04qNA9jiiR5Spz4TJGy3sCxA9FMW+rRMBl1tNzfamF+cyPbJXiPujUdI2jBWWgMt+q3de0K97xubm0hHq3mle3LrLyvtObaOvdL/3aLXmvMFAuvlQz3flWxR042qH19e3UNpppfaFK/RmbUm0Ywn3zqdq6K+XNxQTecn3tJjjFByR3wSLbXx1nnyty/flq8Yvysd9ylaYn0eu15iHqjrZdOhe5pdjZeHn9H5edzt5sn7/H87asuneUyn+38=);lineShape=1;" parent="1" vertex="1">
                    <mxGeometry x="507.89028834789315" y="670.3258633157707" width="3.336041619592531" height="26.492094144593164" as="geometry"/>
                </mxCell>
                <mxCell id="16" value="" style="shape=stencil(lVjZbhsxDPwavxKiqIvPafofAeI0RtM4SNLr70vV0HbF9Q6aNx+kluSQw9Ee5Obt8e7leIjh7f31/PX483T//niQT4cYT8+Px9fTu306yO1Bbh7Or8cvr+fvz/eX7y933bJ/+nb+0U/4dfGLmTh1rxh+X37hSI3//vL54vB0el45SKAWJ4dKKQF7+5snexkHXLVPmfJsz5SBfU4kMtkHkrpvX4QiO/sQ9u1rpOzPb3nfvjHJfH6k2oB9Iy2TfaEM6qlCQT1gqEDKI97FQUnAE1ohaXMGhglIoS7nLRBbjQqsaZxzFnuCAtAKsWsiJQWolU3SSaiitihU5pCSjkbcy6HOfZEjMcihBUozcNmSRp3UKM05ZAsJlFXzaISllRIFkAOHpfeXYQ7EoEyqG4c6oNnrPp2Ra0IJJGHz44CwOsCBVmozEBoH5VxnjOJDssIV8IRkVayzQyUVwHlMaZ6gXjfQG9youhkNmJZ4kO46B9BMwbOqJkhL9nRXVBkh7tlXD0KB5xcXD0MMePDDYh8G7Fft4wBoZR8B6aXRlEvXGcGA+AuF5M8PiPIoB2+f0Fqgor4+iF1003HGRmgrDPRX+DKIR8cGWPUPqmej5uzz2Ls79anF2yuaepJ5YLRAWkmbfMvowOsjTDFuzkdUuiGhPCqw0/+1envEEMHLNKs/A37YEHvXDWBegt/5nbgRY23qwxRAvtHvst7/IH4h3c4XiH+z+vr8gvjrlfkVEE/zKtPs0Qr4qD1XLycMMKShTGKxm5gIGTrxhoIYjkCWgeiqphFxYqI8N3XLUOvXNHbE4mBzhFAo1OYn2BEIZnNwe8DkgiLeYj9opgyRWq7ilWaJMOmS/SozWYeoK9cxKSvhWBFwNopOOBrdgJBM6rppSAlub3uCo3dpA5m9HKK7IqTRv3vXNLfQbAUVdEVQj3S/2qKNnL0e7zc7LOB15hhOuL1NGs8hseEAesmSdlukQZI03KpTCRRBBil41ra7I1LvslmbxlMJpCybDEzaMpLKccjWlQMSgqatxeWg8JITl5viygEl3YuuPiREMrZMuG5yQOK0+O1sDnB7Zi+vDQcBZN/1rKtSGVntObALCd9Ou4N7T5PgHb6H5HIQeGX58Kup/3CwD//ehD2cnp4uL9LW//s3Z/bT5a2b3P4B);lineShape=1;" parent="1" vertex="1">
                    <mxGeometry x="533.0945521963276" y="647.6699710998474" width="30.000175550384824" height="44.25998573255716" as="geometry"/>
                </mxCell>
                <mxCell id="17" value="" style="shape=stencil(lVjZctswDPwav2J4E3xO0//ITJzaUzfOOO71913VpWNC0nb85ihYEcdiAWoTH953T2/bTXDv59Px6/bn/vm828RPmxD2r7vtaX/Gr0183MSHl+Np++V0/P76fPn77WmynH59O/6Y3vDrggtZNEyo4H5fnjhx7u+Dzxf7w/71xj5FSdnax3X7HKV4ax/W7UuQ5ox9If5ULzraBymN2Lf+um5fpNV1e42iZbD3SRIJQL0NOOAVzKMooQ2AGHsO1lL0L+MdkJJ4VjOVNMacswQCiEniWORSxJMYghevA6AWeoJHDGkAKNJKTvBV4pil5nrll11CXYsFNE+Cbp0IV5fwhFE7WZdUJRJAUUsNRZYKJV/wNkuBkA8hhpEaoKMj9G5e6kgNxSsyAaD/x8Kho5S5BKrpXYDaBeLWJZKlBnrrLGjCpdYkm7QGmlbvrqJ4RUTJpNQ4wsgYKsdUAABbarQcj9oZQKU92oqtHADUpSTFALS3+TIgiHoLYMMB7PMzlxJhHzrSnlB6LZcBKm1UMs0SOaCMsoFKN9ajanUGZCpsQCCGWY+yiTJlyQiT64xfrcOsRxs7AZWuFlCZbIBLM5eozuhM751UFkNbUDIqG/OOi+LICUtNnXqLrOqGAWSpTCyhTIYbRZRFfS9gYvMolmBLI4Dq7D7T+EjJGFFjqVF8xu/kreAjqkJcwqQ2MdyUZrl0syX0Qz6XZ7vEsXCNq8CcGdrpuBxz311u24GIBnZIPwKwxwa2YBXb0gWqwKrgxI8pSo2uPznYoRiVagAc0DGGAAAJutTOzCvA0yURXI0jAIVnyzpciobcfb1Zu5wEMx1oP+PyU82m0am7VjVT5iae0Ag8qt7Ys/k557V2IV+2x9Zt42WqjfqYm0btYrBs76w/hbaZn2l2pssn7I14pc7yNX/M5OQjAfbmMhzoIon8GD6A0GSA4HXmiuEks/fP7mHXgJbt77zM/98ePz6+HLzsD4fLh4fb/9svDXh0+UoRH/8A);lineShape=1;" parent="1" vertex="1">
                    <mxGeometry x="613.359408363862" y="662.4018420247858" width="25.376023457546353" height="34.27420035941036" as="geometry"/>
                </mxCell>
                <mxCell id="18" value="" style="shape=stencil(nVfbbtswDP0avxISqetz1/1HgaZLsCwp0mxr/340DHmh5Jxie3NsnoiXc0hqkoe3/dPrbmL3dr2cv+9+H56v+0m+TMyH0353OVz1aZLHSR5ezpfdt8v55+l5+f36NFvOTz/Ov+Z/eF9wIZOLM4rdx/JGyC8vvi72x8PJ2vts7H2gVO8DoqPABsBMSQAgEgfrkaMEXEqOShdCwYBE1cYQEoV0H5CFohhAlHbmJqBo0MUA1EkUdMmUqwWoS+CEqi5ZQPaUPABkCjatObVEbwK8c+ScQZQIEbU0DxqgJhIGgETF+qReRpCmyiTJAvRMB/IaW9pXQG183C51Hk6oVMEJqVDwAwAJolLmHpAKADCx6wEOuKRsTqHPkgNpDbJRuJIhIFjJ1Qj5rS75DhAgv6MfThCo0VgoW8kpWTJga9JKDwABhVO9SOwBAYk6UB4AKK3Vt1Z6EzTqZHXtWzdpzYAaSoQ4FA7RWwXZx6ATAEk0tM835GMQdFFudnWo5IEetLnyoOkMANoZgxXQTW/b5gZTHDRaQNuIYQPAgK6hDEGUxsdtQCDxfSFQXlWjvstrIgcE8e8AHSAWoKUpYAaF2D6vM4hb99wGcOvu61hU1YKgRT93AA/TKr713nW0r6XcBHDs+8y8QgGXvHZ3u22IUgOc4IdurE56wCUVkG0CumGhCRTI2f/XFa4ASQ97gDQq3jGPdvownOlrD129aavQttL6VUxzg3aSvrwObknzMhs6e1Qr/ex9Z+8+YU/t7UEj0sqLdPYe8T/124hWAwnM9e3dQ/+1C7na2aMBNbcI6z9D/f7HdeQTe334e/d5ORyPy9Xp9nt/V9JXyz1LHv8A);lineShape=1;" parent="1" vertex="1">
                    <mxGeometry x="673.9359592458213" y="657.1508125040154" width="6.329387536825759" height="45.94653695255185" as="geometry"/>
                </mxCell>
                <mxCell id="19" value="" style="shape=stencil(lVfZbttADPwavRIk935O0/8IEKc26saB4/T4+1IV1tFS8aB5k6UZL4/hsVO4e90/vOwm5dfL+fR99+vweNlP4cukenje786Hiz1N4X4Kd0+n8+7b+fT2/Lj8fnmYkfPTj9PP+R9+LzxhJuaZpvxneRVI078XXxfC8fC8IrRMLQx4SZQyIAiJDATNJIBQA0kcLSrU4m1CiRTGExKTym1CjlRGQlaKwOkUqepAsDNZbxOinVAHQo2kwIeQKY4nNIU+cM/SFV8oAxeYZEyzJbLwbbz4mLZEpQEHqESPZ2B/IXH2R4pAFWIyqp4gBRAShbYhAA+kUciekIALqpSL91lATDVS2xAqMMkqhZ0qMlVkUvLKNlkUEFYziZ1JlXIABCF1ebC4AWWL6VI9AfkggeKYuFWT+rjFUODNCRWUc0/rCo+0p5TYx6gCe5gy+yQ0WJu8waPa4Z7SlSoY+Ks93ivZoR6ffIu3QsjAntY7wwqvQEMSNw7H3g4+JtRN97KeD4rfVOpLM0JJWB2ETf9CPluQ3EiwJCRU/J8liG5kxLj4tav4OnQCDGtQP2lLIAaFEDdhzUIJKYm9NKIVKyrNSm0k2PBH20LOvoHN5Q3EV7j3t9UCE9Ck0j5nrid0G2/hizo8Gv3zKjFmAce05J6jjmfYXYo1dI+PoHaq9MXgHY9UZJuNSxnu1rX6UjM8SJgtkKk4PIrnvEh4fAa72jxS3byB/s4Dsjp8AZK24eJWI8V1/9mV/D8I9vB+A3g6HI/LBWL93d8Y7NVy2wj3fwE=);lineShape=1;" parent="1" vertex="1">
                    <mxGeometry x="448.6945529225843" y="601.3341963187795" width="9.357492378960805" height="41.6274989593497" as="geometry"/>
                </mxCell>
                <mxCell id="20" value="" style="shape=stencil(lVZbctswDDyNfjEkQfDxnab3yEycWlPXzjhOH7cvVFWqAdnbyZ9EcUUC+yAHfnjbP73uhhTeLufT192P8fmyH/jTkNJ43O/O40WfBn4c+OHldN59OZ/ej8/z++vTNHN6+nb6Pv3h54xLkVqcUCn8+jsiVOufkc8z4DAerwGVSjOAXKjG+wAWkm4AJS8jNwGSqGcDmEbACvq/ZAEcSUANVTygUWpgvn4OdgHq4f78liiwmR8pZDC/ENv5gQL4fw9UxM1vYP9dG85u/4iBXkksx5WagPmdcrX1MiXAWAxrgSuiUwQIXSImq9O8yOQ2oFC3ANY1gSg6U3FNUpZBV1un4lRRKBUA2MhOAQVsqalsXA1CERBRK7ElQp3QANM1ezcr1QlIryqxtkuq7YIB0WlDFvXe25LYROrUUQmVoqVBoPZa8CVri5CZMzVbQKCIzNw9y4EYmZOJXQKTIPMXv39VHTJzW1S81huJkXP6BqAtZggQ2yHNF5R3mi/VHgkawBl586OAKVFtQkpc8uC2iiJVq2sNfQYyEl6Mtcq0QV1o/HTL81UK3k5J8bE9HSygiDVN1qK1byCQ1Am2BM0jdI6ETRxpGgAWNiGvVha8H+sctTLK+OgpUOsURIGvVw8ddK7p6u4Y136C/rfNMVig9dWI0TlN4E0nbkQ3rYA6VCiLL6EAL8dGdXMwVwBQ0pxIlYQM8ujjN87/A/Th3wX3ZTwc5vvx9Xd/Idah+TLNj78B);lineShape=1;" parent="1" vertex="1">
                    <mxGeometry x="447.4629864927804" y="631.4260157901246" width="16.259849513859876" height="11.941517676620492" as="geometry"/>
                </mxCell>
                <mxCell id="21" value="" style="shape=stencil(lZZLctswDIZPoy0GBPhcp+k9MhOn1tS1M47bJrcvVJWqAUvwZEfL/Eg8f2Lgh7f90+tuIHy7nE/fd7/H58t+4C8D0Xjc787jRVYDPw788HI6776dTz+Pz/Pv16dp57T6cfo1nfA+c1Qg4kQRfsxfAkGOf798nYHDeLwGMiArgBPUvA0wQtVAakC4DUTs53WgMAQHSAliVUBOQHUbyNUCXCHRNlCwn7cAEUJxAIZkooSQnCiVAlXfQBXQ8aHSDZCheYCcFzRQgNs20AiK9oEkcU5ptAwpaacJ2HG6NUCdac4QnTwEREBdrlItzXOi2czFBMkDJIpFAw2K5zUD67gm7pHeSkTWJkkBY3IAKaYbIDtAqbb6UoTiAdEmIhFEx2lpiH8isUSp9rhttVzWJsUI2cmDAGRuwG7kOtAg6TyIMLktRzZxHPywZmBtkvRocW6oAYLp0QLBcbrKDWwBTwVasFESk6KTh5as3ovTnhq32kXiSvrudFzVDcTNrSUBiunp6Dv9WaBKEEkBRd4sJ9OZIWolk7ixA8Rie/pKqtalrELVNtUGzblCgmheRekQRysZmq6MHLuNq/tFR3VQE/b+2NhvlFjajRz7b/aH4L5XaN/o1geP9Xh2kV7cdUcA7uKzWN+rdr0geqgX4+/kyvQ9ujOVjFwxmP1u7SQoN/sdZ6XWTG7R9XYKptEtYKfUKHZVWxrSffenGVLbk90RchJBfX6D7Nn/6aH2PiCL/zP0y3g4zCP49f925pZP87zOj38A);lineShape=1;" parent="1" vertex="1">
                    <mxGeometry x="478.40808523730334" y="589.0906148779811" width="13.263214667621053" height="14.697919763455616" as="geometry"/>
                </mxCell>
                <mxCell id="22" value="" style="shape=stencil(fZbdcgIhDIWfZm8zQAg/17Z9j85U606tdqz9e/tmZ0c0uJ47xP0I5JwEBl59bp8/1kNwn6fj4W39M76ctgM/DCGM++36OJ50NPDjwKvN4bh+PR6+9i/z74/n6ctp9H74nlb4nbmSKZeJCu5vngmZ6jzzNAO7cX8FVKEsBuBKrgKg9oAE8gkCbLeUhEoEQKSUDZDLeWYRKIl8MEDRmHwfyBrBG6Amyu4+kDxxMoB3jhwgYu7TVAsVkFcWCs4CTBEoF4RctKeOxHIf8IXYpikHikAIf+MNUW94AGSSaoAoFIE3AlOyeWU+p2E5S9yfQZcQILVuQOwZdJNoS9Ls3wA5u2XZTIHECqeJ9kDpSaauRiNVcAY1QhdBzeLBli5WazpkSsBLV25uRaqWRyFawTQzRRIQYirJzq5atkBqLfouwqUxLBepthWb10vrWZY6UOAeyKCCtDV625mm9gmUC4Wc3VLJMMIE1BsA2FW9JraVlQB7n3c9oMKhCLEvIM1zBPZ25/umNQ1tVEC2G+fFCC8g398O2hNQuQlVu752DBfA+q0ptnqO5JFmeuIuo9DY7KjY71UxdJV4EntifPWorW++R/dC4t7V3DlIB5cHx2bc7eb3yvX//QNFp+bHDT/+Aw==);lineShape=1;" parent="1" vertex="1">
                    <mxGeometry x="488.58160273898443" y="576.3294751139517" width="3.8937831434293457" height="3.88769684696437" as="geometry"/>
                </mxCell>
                <mxCell id="35" value="Thereo&lt;br&gt;" style="text;strokeColor=none;align=center;fillColor=none;html=1;verticalAlign=middle;whiteSpace=wrap;rounded=0;flipV=1;flipH=1;" parent="1" vertex="1">
                    <mxGeometry x="486.73" y="760" width="60" height="30" as="geometry"/>
                </mxCell>
            </root>
        </mxGraphModel>
    </diagram>
</mxfile>